<?xml version="1.0" standalone="no"?>
<!DOCTYPE svg PUBLIC "-//W3C//DTD SVG 20010904//EN"
 "http://www.w3.org/TR/2001/REC-SVG-20010904/DTD/svg10.dtd">
<svg version="1.0" xmlns="http://www.w3.org/2000/svg"
 width="950.000000pt" height="950.000000pt" viewBox="0 0 950.000000 950.000000"
 preserveAspectRatio="xMidYMid meet">
<metadata>
Created by potrace 1.14, written by Peter Selinger 2001-2017
</metadata>
<g transform="translate(0.000000,950.000000) scale(0.100000,-0.100000)"
fill="#000000" stroke="none">
<path d="M4895 9354 c-168 -15 -505 -71 -630 -105 -22 -5 -56 -14 -75 -19
-101 -23 -362 -120 -517 -192 -34 -15 -65 -28 -69 -28 -9 0 -211 -102 -299
-151 -38 -22 -78 -42 -87 -45 -10 -4 -18 -10 -18 -15 0 -5 -9 -9 -20 -9 -11 0
-20 -4 -20 -10 0 -5 -6 -10 -13 -10 -7 0 -23 -9 -35 -20 -12 -11 -24 -20 -27
-20 -9 0 -159 -104 -163 -112 -2 -5 -9 -8 -15 -8 -7 0 -55 -34 -107 -76 -147
-116 -174 -141 -162 -148 6 -3 16 0 24 7 7 8 18 12 24 10 7 -2 19 3 27 12 9 8
19 15 24 15 10 0 136 61 143 69 3 3 12 7 20 9 31 6 70 25 65 32 -3 4 7 8 21 8
15 0 29 3 33 8 3 5 15 11 26 12 10 2 40 13 65 24 25 11 54 24 65 28 36 15 199
67 253 81 28 7 52 17 52 21 0 5 4 7 9 4 5 -3 23 -3 41 0 23 5 28 9 18 16 -9 6
-6 8 12 7 14 -1 39 -1 55 0 24 1 27 3 15 12 -12 8 -8 9 15 8 58 -4 86 1 79 12
-5 8 1 10 19 5 14 -3 28 -2 31 3 3 4 18 6 33 4 23 -4 25 -2 13 7 -12 9 -8 11
20 9 19 -1 51 -1 70 0 28 1 32 4 20 12 -11 8 -4 9 28 5 23 -4 42 -2 42 3 0 5
19 7 43 4 33 -4 39 -2 27 7 -12 9 -5 10 32 5 29 -4 49 -2 53 5 4 6 27 9 58 6
35 -4 42 -3 22 2 -18 5 43 8 145 9 96 1 231 4 300 8 90 4 121 3 110 -4 -11 -8
14 -9 90 -5 62 4 144 2 200 -5 135 -17 155 -21 139 -32 -8 -4 10 -6 42 -2 41
4 59 2 70 -9 9 -10 26 -13 47 -10 17 2 44 1 59 -3 21 -5 24 -8 12 -16 -9 -6 1
-8 31 -4 35 4 40 3 25 -5 -18 -9 -17 -10 8 -7 15 3 27 0 27 -5 0 -5 14 -7 33
-3 24 5 28 4 17 -4 -12 -9 -9 -11 15 -12 17 -1 41 -1 55 0 20 1 22 -1 10 -9
-12 -8 -9 -10 15 -11 17 -1 41 0 54 1 14 1 21 -2 17 -9 -8 -12 10 -15 59 -12
23 1 27 0 15 -8 -13 -9 -12 -11 5 -12 11 -1 31 -1 45 0 20 1 22 -1 10 -9 -12
-8 -10 -10 10 -11 14 -1 34 -1 45 0 17 2 17 0 5 -8 -12 -9 -10 -11 10 -12 14
-1 34 -1 45 0 13 0 15 -2 6 -6 -17 -7 101 -53 141 -55 15 0 25 -4 23 -8 -7
-12 22 -20 42 -13 10 4 14 2 10 -4 -9 -14 18 -24 40 -16 10 4 14 2 10 -4 -4
-6 9 -17 31 -26 32 -13 97 -41 182 -81 14 -6 27 -13 30 -16 12 -12 51 -30 65
-30 8 0 15 -3 15 -7 0 -5 10 -13 23 -18 53 -26 153 -81 165 -92 6 -6 21 -15
32 -18 11 -3 20 -11 20 -16 0 -5 5 -9 10 -9 9 0 116 -64 145 -87 6 -4 27 -19
47 -33 21 -14 38 -28 38 -32 0 -5 6 -8 13 -8 7 0 22 -8 33 -18 10 -10 35 -28
54 -42 19 -13 42 -32 51 -42 9 -10 20 -18 25 -18 5 0 27 -17 49 -37 22 -21 65
-58 95 -83 30 -25 99 -88 153 -140 54 -52 105 -99 113 -103 8 -4 14 -13 14
-18 0 -6 21 -31 48 -57 26 -26 59 -63 74 -82 15 -19 47 -57 72 -85 25 -27 46
-54 46 -58 0 -4 11 -19 25 -33 14 -14 25 -28 25 -32 0 -4 18 -27 40 -52 22
-25 42 -53 46 -62 3 -10 9 -18 14 -18 5 0 11 -8 15 -19 3 -10 17 -31 30 -47
14 -16 25 -35 25 -41 0 -7 4 -13 8 -13 5 0 15 -12 23 -27 8 -16 16 -30 19 -33
10 -10 78 -126 95 -162 9 -21 21 -38 26 -38 5 0 9 -9 9 -19 0 -11 3 -21 8 -23
10 -4 62 -103 122 -233 17 -38 37 -80 42 -92 8 -16 7 -25 -3 -35 -19 -18 -70
-48 -91 -55 -10 -3 -18 -9 -18 -13 0 -4 -8 -10 -17 -13 -10 -4 -36 -18 -58
-32 -22 -13 -50 -30 -62 -37 -13 -6 -23 -15 -23 -20 0 -4 -6 -8 -13 -8 -7 0
-22 -8 -33 -17 -52 -46 -201 -113 -454 -205 -30 -11 -77 -28 -104 -39 -27 -10
-55 -19 -62 -19 -8 0 -22 -4 -32 -9 -39 -20 -127 -31 -302 -36 -102 -3 -233
-11 -292 -16 -58 -6 -200 -11 -315 -13 -208 -2 -208 -2 -290 -34 -45 -18 -91
-32 -103 -32 -11 0 -20 -3 -20 -7 0 -5 -35 -18 -78 -31 -108 -33 -131 -38
-270 -67 -67 -13 -155 -32 -195 -42 l-72 -17 -180 -181 c-99 -99 -200 -205
-225 -235 -24 -30 -64 -74 -87 -98 -23 -23 -55 -64 -70 -90 -15 -26 -31 -50
-36 -53 -5 -4 -3 -17 4 -30 6 -13 15 -31 19 -38 28 -60 134 -73 231 -28 62 29
114 68 192 142 29 28 73 61 97 74 25 14 66 45 92 69 26 25 58 52 70 60 13 9
26 20 29 25 4 5 11 7 17 3 6 -3 12 -1 14 4 2 7 51 12 125 13 l122 2 -22 -25
c-12 -14 -24 -27 -27 -30 -10 -11 -66 -87 -90 -122 -14 -21 -28 -38 -32 -38
-5 0 -8 -5 -8 -11 0 -6 -14 -30 -30 -54 l-31 -45 4 -267 c2 -148 6 -283 10
-301 5 -29 43 -109 58 -122 7 -6 49 -137 49 -152 0 -6 10 -33 22 -60 l22 -48
68 0 c45 0 68 4 68 12 0 6 3 9 6 5 9 -9 28 13 43 50 25 61 11 262 -21 298 -12
14 -10 55 3 55 9 0 10 32 5 119 -8 132 0 221 19 221 8 0 14 -23 17 -64 4 -40
13 -75 25 -93 11 -15 25 -48 33 -73 7 -25 17 -49 22 -55 4 -5 8 -16 8 -25 0
-16 21 -66 63 -147 14 -27 24 -38 29 -30 5 8 8 6 8 -6 0 -18 53 -71 64 -65 3
2 13 -7 21 -19 9 -13 25 -23 36 -23 10 0 19 -7 19 -15 0 -8 3 -15 8 -15 4 0
24 -16 44 -35 20 -19 41 -35 47 -35 6 0 10 -6 8 -13 -1 -7 6 -11 17 -9 11 2
15 -1 11 -7 -17 -29 90 3 115 34 32 39 8 200 -32 219 -7 3 -31 17 -53 31 -22
14 -50 30 -62 37 -13 6 -23 21 -23 32 -1 31 -23 106 -43 145 -24 47 -22 52 23
100 22 23 40 50 40 61 0 23 74 100 113 117 28 13 28 13 23 -20 -14 -82 -11
-341 3 -332 12 7 26 -59 17 -81 -3 -9 10 -63 29 -120 19 -57 35 -110 35 -119
0 -8 5 -15 10 -15 6 0 10 -10 9 -23 -4 -45 2 -67 25 -91 22 -24 74 -38 61 -16
-4 6 8 10 28 10 36 0 55 16 75 63 15 35 16 146 1 184 -18 47 -15 280 5 336 11
34 14 64 10 97 -6 42 -4 49 14 54 11 4 22 15 25 26 3 10 21 25 40 34 20 8 46
26 58 40 16 18 28 24 48 20 30 -6 157 9 216 25 22 6 74 18 115 26 197 40 272
62 367 106 34 16 66 29 72 29 6 0 30 10 53 21 30 15 58 43 93 91 69 96 91 115
155 135 30 9 57 20 60 23 3 4 19 10 35 13 17 3 64 12 105 21 41 9 96 20 122
26 26 5 89 13 141 16 103 7 111 4 120 -56 55 -383 70 -564 70 -870 1 -276 -10
-378 -72 -735 -16 -89 -50 -237 -81 -350 -17 -60 -38 -135 -46 -165 -24 -87
-126 -371 -164 -455 -12 -27 -29 -66 -37 -85 -8 -19 -60 -127 -116 -239 -56
-112 -103 -209 -105 -215 -5 -15 26 22 103 124 36 47 72 94 81 105 8 11 23 32
32 47 9 16 20 28 24 28 4 0 8 4 8 10 0 9 69 123 90 147 5 7 10 19 10 28 0 8 5
15 10 15 6 0 10 6 10 13 0 7 9 23 20 35 11 12 20 26 20 33 0 6 8 23 18 37 17
25 122 235 155 312 9 19 31 69 50 110 18 41 48 113 66 160 18 47 39 99 46 115
8 17 21 53 30 80 16 51 30 86 46 117 5 10 9 24 9 32 0 7 13 53 29 102 15 49
38 127 51 174 12 47 26 96 30 110 10 32 26 107 59 277 42 213 51 329 51 658 0
362 -10 495 -61 825 -33 209 -90 460 -142 620 -8 25 -20 65 -27 90 -7 25 -16
54 -21 65 -5 11 -22 56 -38 100 -67 187 -76 210 -83 213 -5 2 -8 9 -8 16 0 7
-13 40 -30 74 -16 34 -30 69 -30 76 0 8 -3 16 -7 18 -5 2 -26 39 -49 83 -59
116 -108 209 -114 215 -3 3 -17 26 -30 53 -14 26 -28 47 -32 47 -5 0 -8 5 -8
10 0 9 -126 203 -157 240 -6 8 -33 44 -60 80 -26 36 -56 74 -65 84 -10 11 -18
23 -18 27 0 4 -28 37 -62 72 -35 36 -83 87 -107 114 -82 91 -138 149 -172 177
-19 16 -59 51 -89 80 -31 28 -71 64 -90 79 -19 16 -50 40 -68 55 -19 15 -48
39 -65 53 -18 14 -61 45 -97 70 -36 24 -72 52 -81 61 -9 10 -24 18 -33 18 -9
0 -16 4 -16 9 0 5 -9 13 -20 16 -11 3 -26 12 -32 18 -15 15 -69 47 -158 95
-36 19 -72 40 -80 47 -15 11 -216 110 -255 125 -11 4 -40 17 -65 28 -75 34
-121 54 -149 62 -14 5 -64 22 -111 40 -92 33 -123 43 -273 84 -144 39 -217 55
-492 102 -70 13 -183 17 -500 19 -225 1 -428 1 -450 -1z"/>
<path d="M4953 8853 c9 -2 23 -2 30 0 6 3 -1 5 -18 5 -16 0 -22 -2 -12 -5z"/>
<path d="M5053 8843 c9 -2 25 -2 35 0 9 3 1 5 -18 5 -19 0 -27 -2 -17 -5z"/>
<path d="M5143 8833 c9 -2 23 -2 30 0 6 3 -1 5 -18 5 -16 0 -22 -2 -12 -5z"/>
<path d="M5278 8813 c6 -2 18 -2 25 0 6 3 1 5 -13 5 -14 0 -19 -2 -12 -5z"/>
<path d="M2550 8330 c-9 -6 -10 -10 -3 -10 6 0 15 5 18 10 8 12 4 12 -15 0z"/>
<path d="M2450 8289 c-63 -29 -107 -55 -217 -126 -28 -18 -56 -33 -62 -33 -6
0 -11 -3 -11 -7 0 -5 -17 -19 -38 -33 -20 -14 -39 -27 -42 -30 -3 -3 -21 -17
-40 -30 -41 -29 -85 -66 -116 -97 -12 -13 -24 -23 -28 -23 -4 0 -17 -10 -30
-22 -13 -13 -43 -39 -67 -58 -57 -45 -382 -373 -417 -419 -15 -20 -38 -47 -52
-61 -14 -14 -37 -41 -52 -62 -15 -20 -33 -42 -40 -50 -7 -7 -26 -30 -41 -51
-16 -20 -39 -48 -53 -62 -13 -13 -24 -28 -24 -32 0 -4 -12 -21 -26 -38 -14
-16 -33 -42 -42 -57 -9 -16 -20 -28 -24 -28 -4 0 -8 -6 -8 -13 0 -7 -9 -23
-20 -35 -11 -12 -20 -24 -20 -28 0 -4 -10 -21 -23 -38 -22 -29 -40 -59 -110
-186 -17 -30 -33 -57 -36 -60 -3 -3 -11 -20 -18 -37 -8 -25 -8 -33 0 -34 7 0
113 -4 237 -9 124 -5 251 -12 283 -16 39 -5 57 -3 57 4 0 6 -6 9 -14 6 -11 -4
-11 1 -2 31 6 19 16 33 22 31 7 -3 10 3 7 15 -6 22 17 109 29 109 4 0 8 7 8
15 0 8 14 43 30 77 17 34 30 67 30 75 0 7 5 13 10 13 6 0 10 9 10 20 0 25 29
72 40 65 5 -3 6 5 3 17 -4 19 -3 20 6 8 10 -13 11 -13 12 0 1 8 1 23 0 33 -1
9 3 17 8 17 6 0 11 10 11 23 1 25 30 71 30 46 1 -23 29 34 30 59 0 12 6 25 14
28 9 3 12 12 9 21 -4 11 -2 14 5 9 7 -4 12 -1 12 8 0 9 9 25 20 36 11 11 20
32 20 48 0 21 2 24 10 12 9 -13 10 -13 11 0 1 8 1 21 0 29 -2 7 2 10 7 7 5 -3
15 7 23 22 8 15 16 29 19 32 13 12 49 68 52 80 2 8 11 21 20 30 9 8 18 22 20
30 2 8 11 21 21 28 9 7 17 18 17 24 0 5 18 30 40 55 22 25 40 49 40 53 0 4 18
27 40 50 22 23 40 49 40 58 0 8 3 13 6 9 3 -3 27 20 53 51 26 31 55 63 64 71
10 7 17 18 17 23 0 13 26 38 39 38 6 0 11 4 11 10 0 11 128 140 156 157 10 6
18 16 17 22 -2 6 2 11 8 11 5 0 7 5 3 12 -5 7 -2 9 8 5 17 -6 83 55 72 66 -11
10 -14 10 -84 -24z"/>
<path d="M1140 5475 c-117 -17 -266 -69 -278 -97 -2 -5 -9 -8 -14 -8 -33 0
-308 -252 -308 -282 0 -5 -10 -20 -23 -34 -13 -13 -36 -50 -53 -82 -16 -31
-32 -58 -36 -60 -5 -2 -8 -9 -8 -16 0 -7 -9 -31 -20 -54 -11 -22 -20 -46 -20
-52 0 -5 -4 -18 -9 -28 -19 -37 -30 -70 -50 -148 -28 -106 -27 -131 2 -82 26
45 44 51 22 8 -9 -16 -13 -30 -11 -30 10 0 32 55 29 71 -2 9 3 22 12 29 15 13
21 2 8 -16 -5 -5 2 2 14 15 12 14 21 27 21 30 -2 19 3 31 10 27 5 -3 22 8 37
24 16 17 25 30 21 30 -9 0 41 50 51 50 4 0 32 23 62 50 29 28 58 50 63 50 12
0 72 41 76 52 2 5 7 6 12 3 5 -3 14 0 22 7 7 7 22 15 33 16 11 2 36 12 57 23
20 10 46 19 58 19 11 0 20 5 20 11 0 5 5 7 10 4 6 -4 36 1 68 11 70 21 299 24
384 5 118 -26 296 -93 318 -120 3 -3 22 -15 42 -26 44 -25 113 -81 185 -153
51 -50 64 -72 43 -72 -5 0 -10 -5 -10 -11 0 -8 5 -7 15 1 9 7 17 11 19 9 16
-20 66 -99 66 -104 0 -4 9 -18 19 -31 l19 -24 4 57 c2 32 2 63 -1 68 -3 6 -4
18 -2 29 2 12 -1 16 -10 11 -9 -6 -10 -1 -5 19 5 19 2 28 -10 33 -11 4 -14 14
-10 34 4 19 1 29 -11 33 -10 4 -14 15 -11 31 4 17 1 25 -9 25 -9 0 -14 9 -13
23 1 12 2 31 1 42 -1 17 -3 18 -12 5 -8 -12 -10 -12 -8 5 1 11 1 27 0 35 -1
13 -2 13 -11 0 -7 -11 -10 -7 -10 18 0 17 -4 32 -10 32 -5 0 -10 8 -11 18 -1
25 -35 77 -48 74 -6 -1 -11 6 -11 17 0 10 -18 37 -40 60 -22 22 -40 44 -40 48
0 9 -52 63 -60 63 -4 0 -26 18 -49 40 -23 22 -48 40 -56 40 -8 0 -15 4 -15 9
0 14 -137 79 -201 95 -54 14 -200 37 -222 35 -7 -1 -50 -7 -97 -14z"/>
<path d="M590 4763 c0 -5 -18 -27 -40 -51 -22 -24 -47 -57 -57 -73 -10 -16
-21 -29 -25 -29 -4 0 -8 -6 -8 -13 0 -7 -9 -23 -20 -35 -11 -12 -20 -24 -20
-28 0 -3 -12 -25 -27 -48 -16 -22 -34 -53 -42 -68 -8 -16 -18 -28 -23 -28 -4
0 -8 -7 -8 -15 0 -8 -4 -23 -9 -33 -17 -33 -30 -68 -47 -119 -17 -55 -13 -106
21 -258 7 -33 19 -87 25 -120 7 -33 19 -85 27 -115 8 -30 21 -84 30 -120 8
-36 19 -73 24 -82 5 -10 9 -25 9 -33 0 -8 4 -23 9 -33 5 -9 19 -51 32 -92 12
-41 26 -79 31 -85 4 -5 8 -16 8 -25 0 -9 9 -35 20 -58 11 -22 20 -47 20 -55 0
-7 4 -17 8 -23 5 -5 19 -36 32 -69 45 -113 234 -478 291 -562 16 -23 29 -44
29 -47 0 -3 33 -54 73 -112 39 -59 77 -114 82 -122 6 -9 16 -23 23 -30 7 -8
21 -27 30 -41 9 -14 22 -33 29 -41 87 -110 156 -193 189 -230 23 -25 55 -61
70 -80 42 -50 295 -301 362 -357 31 -27 67 -58 79 -70 12 -12 39 -34 60 -50
21 -15 47 -35 58 -45 59 -48 153 -119 222 -168 43 -30 80 -58 81 -62 2 -5 8
-8 13 -8 6 0 42 -22 82 -49 185 -124 476 -279 709 -376 73 -31 142 -60 153
-65 11 -5 58 -22 105 -38 275 -96 333 -112 615 -172 545 -115 1178 -118 1715
-9 179 36 192 39 249 55 472 139 809 291 1157 524 58 38 109 70 114 70 4 0 10
4 12 8 2 5 59 51 128 103 69 51 141 108 160 126 19 18 38 33 41 33 4 0 30 21
57 47 28 27 95 89 150 138 54 50 109 104 123 121 13 17 55 65 93 106 37 42 68
80 69 85 0 4 12 19 27 33 15 14 38 41 51 60 13 19 29 41 36 48 7 7 13 17 13
20 0 4 10 19 23 33 12 14 27 32 32 41 6 8 27 41 48 73 21 31 36 59 34 61 -2 3
-19 -9 -37 -26 -18 -16 -34 -30 -36 -30 -3 0 -30 -26 -62 -58 -31 -32 -86 -82
-122 -112 -35 -30 -71 -61 -78 -67 -7 -7 -48 -39 -90 -70 -42 -32 -79 -60 -82
-64 -5 -6 -206 -145 -238 -164 -9 -6 -39 -23 -67 -40 -27 -16 -52 -32 -55 -35
-3 -3 -34 -21 -70 -39 -36 -19 -66 -38 -68 -43 -2 -4 -10 -8 -19 -8 -8 0 -27
-8 -41 -18 -15 -10 -52 -30 -82 -44 -30 -14 -98 -46 -150 -71 -229 -108 -627
-238 -884 -288 -312 -62 -505 -80 -843 -80 -150 0 -321 5 -380 11 -244 25
-521 73 -693 120 -41 11 -90 23 -108 27 -18 3 -35 10 -38 14 -3 5 -16 9 -28 9
-13 0 -45 8 -72 19 -27 10 -80 28 -119 40 -81 26 -260 93 -322 122 -24 10 -45
19 -47 19 -21 0 -524 252 -536 269 -3 3 -26 18 -52 31 -42 22 -47 28 -46 57 1
18 5 30 10 27 8 -5 12 9 9 34 -1 7 5 15 13 18 8 3 13 11 10 18 -2 6 5 22 16
34 11 12 17 22 13 22 -4 0 1 6 11 13 10 8 20 24 21 38 4 43 5 44 14 30 8 -12
11 -8 16 15 8 37 27 76 33 69 10 -9 40 48 34 63 -3 10 -1 13 6 8 7 -4 12 -2
12 3 0 6 7 11 16 11 9 0 18 9 21 21 4 16 8 17 14 7 7 -10 9 -9 9 5 0 21 45 69
56 59 4 -4 4 1 1 10 -3 10 -2 20 3 23 4 3 10 1 12 -5 2 -6 9 -1 16 11 8 12 9
18 3 14 -6 -3 -11 -1 -11 4 0 6 7 11 15 11 9 0 19 8 22 17 8 21 69 83 81 83
14 0 53 46 45 53 -3 4 3 7 15 7 12 0 22 3 22 8 0 4 10 12 23 17 36 17 112 60
117 66 3 3 17 9 31 12 14 4 42 18 63 32 20 14 43 25 51 25 8 0 15 5 15 10 0 6
7 10 15 10 8 0 23 4 33 9 9 5 44 19 77 31 33 12 69 26 80 30 51 21 92 30 136
30 33 0 55 6 67 18 9 9 29 19 42 20 14 2 29 8 35 13 5 5 17 9 26 9 20 0 126
54 151 77 10 9 18 20 18 25 0 12 26 38 32 33 3 -3 15 7 29 22 22 25 22 26 1 9
-12 -11 -22 -16 -22 -11 0 13 48 64 54 58 3 -4 6 -1 6 6 0 7 4 10 9 7 11 -7
33 18 24 27 -3 4 1 7 10 7 9 0 17 6 17 14 0 8 15 24 33 35 17 11 43 32 56 46
13 14 29 25 37 25 8 0 14 5 14 10 0 6 6 10 13 10 7 0 22 8 33 18 10 9 35 29
54 43 61 46 187 173 203 205 9 17 21 53 28 80 7 27 25 75 41 106 15 32 30 66
32 75 1 10 6 25 9 33 11 27 44 124 56 165 22 76 62 230 68 257 3 15 18 41 34
58 16 16 29 37 29 45 0 8 9 29 20 47 26 43 28 125 3 131 -39 10 -139 5 -182
-9 -111 -36 -142 -66 -172 -166 -14 -50 -23 -59 -33 -33 -7 19 -30 19 -50 0
-8 -8 -22 -15 -32 -15 -30 0 -88 -24 -107 -44 -19 -21 -32 -64 -43 -139 -6
-42 -13 -53 -63 -94 -31 -26 -93 -85 -139 -130 -64 -65 -99 -91 -160 -120 -42
-20 -79 -39 -82 -42 -3 -4 -21 -18 -40 -32 -19 -15 -52 -42 -74 -61 -38 -34
-170 -88 -183 -74 -4 3 -6 31 -5 61 1 32 -3 55 -9 55 -6 0 -8 4 -5 9 8 13 -31
59 -64 76 -34 18 -137 20 -177 4 -15 -7 -73 -33 -128 -59 -132 -63 -196 -84
-290 -95 -82 -10 -171 -35 -235 -66 -33 -16 -63 -29 -66 -29 -3 0 -45 -19 -92
-42 -123 -59 -173 -120 -206 -248 -18 -70 -23 -84 -55 -162 -5 -13 -15 -40
-22 -60 -7 -21 -24 -50 -37 -65 -13 -15 -36 -44 -51 -63 -14 -19 -31 -41 -38
-48 -7 -7 -20 -26 -30 -42 -9 -17 -20 -30 -24 -30 -4 0 -12 -14 -19 -30 -7
-16 -16 -30 -21 -30 -5 0 -9 -4 -9 -10 0 -24 -153 -266 -208 -328 l-29 -34
-43 41 c-24 23 -47 41 -52 41 -4 0 -8 7 -8 15 0 8 -6 15 -14 15 -7 0 -22 12
-31 28 -21 32 -84 92 -96 92 -5 0 -8 4 -7 9 2 5 -23 34 -54 65 -32 30 -58 60
-58 66 0 5 -9 15 -20 22 -11 7 -20 18 -20 25 0 6 -3 13 -8 15 -4 2 -36 38 -71
81 -35 42 -68 77 -73 77 -5 0 -7 4 -4 8 3 5 -10 26 -29 47 -19 21 -35 44 -35
51 0 8 -7 14 -16 14 -8 0 -12 5 -9 10 3 6 1 10 -4 10 -6 0 -11 8 -11 17 0 9
-3 13 -7 10 -9 -9 -32 24 -33 46 0 10 -5 15 -11 12 -6 -4 -9 -1 -8 6 2 8 -5
28 -14 46 -12 23 -22 30 -34 26 -13 -5 -15 -2 -11 15 4 14 2 22 -6 22 -16 0
-40 45 -32 59 4 6 1 9 -7 5 -10 -3 -20 6 -28 25 -8 17 -18 31 -23 31 -5 0 -6
13 -3 30 4 16 2 32 -3 35 -6 3 -7 -1 -4 -9 4 -9 1 -16 -6 -16 -8 0 -11 9 -8
25 6 27 -24 80 -37 68 -4 -5 -5 0 -2 10 4 11 1 17 -9 17 -8 0 -14 6 -13 13 3
25 -1 38 -12 32 -6 -4 -9 0 -7 11 2 12 -2 18 -11 16 -9 -2 -11 3 -7 13 8 21
-25 89 -36 73 -6 -10 -8 -8 -8 4 0 9 -4 18 -10 20 -5 2 -11 19 -13 39 -2 19
-9 44 -16 55 -10 15 -11 15 -7 2 3 -10 1 -18 -5 -18 -6 0 -10 10 -9 23 3 37 0
48 -11 42 -6 -4 -10 -1 -8 6 3 28 -1 40 -13 33 -8 -5 -9 -2 -5 9 8 21 -2 49
-15 41 -5 -3 -9 0 -7 7 1 8 1 23 0 34 -1 17 -3 18 -12 5 -8 -12 -10 -12 -8 5
1 11 1 29 0 40 -1 17 -3 18 -12 5 -8 -12 -9 -11 -7 5 4 33 -24 108 -35 93 -6
-9 -7 -6 -4 10 3 13 0 22 -7 22 -15 0 -40 85 -30 101 4 8 3 9 -4 5 -13 -8 -28
37 -18 53 3 5 3 17 0 26 -6 13 -9 14 -16 3 -7 -9 -8 -5 -5 14 2 16 0 26 -7 25
-6 -1 -11 14 -11 36 0 21 -5 37 -11 37 -7 0 -14 11 -16 25 -3 14 -1 25 3 25 5
0 9 4 9 10 0 5 -7 7 -17 3 -14 -6 -15 0 -10 43 3 29 2 41 -2 29 -8 -18 -9 -18
-16 8 -4 15 -4 39 -1 55 5 19 4 23 -3 13 -8 -12 -11 -9 -16 15 -3 16 -10 45
-15 64 -17 65 -18 80 -9 86 15 9 10 34 -6 28 -11 -5 -15 1 -15 19 0 14 -3 33
-7 43 -4 12 -3 15 5 10 7 -4 12 -17 12 -28 0 -12 3 -19 6 -15 9 8 -6 67 -17
67 -5 0 -9 -3 -9 -7z"/>
<path d="M1850 4695 c0 -8 -15 -61 -33 -117 -19 -57 -40 -123 -47 -148 -21
-74 -114 -338 -135 -385 -8 -16 -21 -52 -30 -80 -9 -27 -55 -126 -102 -220
-48 -93 -91 -180 -97 -192 -6 -13 -14 -23 -18 -23 -5 0 -8 -9 -8 -19 0 -11 -3
-21 -8 -23 -4 -1 -27 -37 -52 -78 -24 -41 -47 -77 -50 -80 -3 -3 -11 -16 -19
-30 -8 -14 -21 -37 -30 -51 -14 -25 -14 -29 14 -70 17 -24 40 -55 53 -69 12
-14 22 -28 22 -32 0 -3 6 -13 13 -20 7 -7 24 -29 37 -48 13 -19 35 -46 47 -60
13 -14 23 -28 23 -32 0 -3 6 -13 13 -20 7 -7 24 -29 37 -48 14 -19 34 -45 45
-56 11 -12 27 -31 35 -44 8 -12 21 -29 28 -36 15 -16 36 -19 27 -5 -3 5 -1 12
5 16 5 3 10 0 10 -7 0 -7 9 0 19 15 10 16 16 38 13 49 -3 11 -1 23 4 27 5 3
20 28 33 54 14 26 30 46 36 43 8 -3 10 4 7 20 -3 17 0 24 11 24 9 0 19 5 23
12 4 7 3 8 -4 4 -7 -4 -12 -1 -12 8 0 9 6 16 14 16 9 0 12 7 9 20 -3 12 0 20
6 20 7 0 9 -6 6 -12 -4 -7 1 -4 9 7 9 11 14 25 12 32 -3 7 -1 13 3 13 5 0 7 9
4 20 -4 14 0 20 10 20 10 0 14 7 10 23 -4 18 -3 19 6 7 9 -13 11 -12 12 5 1
11 0 26 -1 34 -1 8 8 22 20 31 13 10 23 28 23 43 0 15 3 24 8 21 9 -5 13 17 9
46 -1 8 2 12 6 7 9 -9 56 102 48 114 -3 5 0 9 6 9 7 0 9 8 5 21 -5 16 -4 19 6
14 9 -6 11 -3 6 8 -3 10 -2 17 2 17 5 0 7 10 5 23 -2 12 -1 16 2 7 10 -20 45
85 37 107 -4 11 -3 14 5 9 11 -7 17 13 13 38 -1 5 3 12 9 16 6 4 12 21 12 38
1 17 4 29 8 27 10 -6 33 79 32 116 0 19 3 27 10 23 7 -5 9 0 6 14 -4 12 -2 22
3 22 5 0 6 12 3 26 -5 19 -4 25 5 20 13 -8 14 6 11 128 -1 50 -6 97 -10 105
-4 9 -36 76 -71 149 -35 72 -67 132 -71 132 -5 0 -8 5 -8 10 0 6 -27 51 -60
100 -56 83 -90 112 -90 75z"/>
<path d="M631 4614 c0 -11 3 -14 6 -6 3 7 2 16 -1 19 -3 4 -6 -2 -5 -13z"/>
<path d="M2132 4540 c0 -14 2 -19 5 -12 2 6 2 18 0 25 -3 6 -5 1 -5 -13z"/>
<path d="M2142 4460 c0 -19 2 -27 5 -17 2 9 2 25 0 35 -3 9 -5 1 -5 -18z"/>
<path d="M6701 4324 c0 -11 3 -14 6 -6 3 7 2 16 -1 19 -3 4 -6 -2 -5 -13z"/>
<path d="M711 4294 c0 -11 3 -14 6 -6 3 7 2 16 -1 19 -3 4 -6 -2 -5 -13z"/>
<path d="M2171 4094 c0 -11 3 -14 6 -6 3 7 2 16 -1 19 -3 4 -6 -2 -5 -13z"/>
<path d="M5988 3893 c6 -2 18 -2 25 0 6 3 1 5 -13 5 -14 0 -19 -2 -12 -5z"/>
<path d="M1220 3150 c6 -11 13 -20 16 -20 2 0 0 9 -6 20 -6 11 -13 20 -16 20
-2 0 0 -9 6 -20z"/>
<path d="M1695 2829 c-4 -6 -5 -12 -2 -15 2 -3 7 2 10 11 7 17 1 20 -8 4z"/>
<path d="M386 2331 l-298 -297 10 -34 c6 -19 29 -89 53 -155 23 -66 72 -209
110 -319 37 -109 71 -202 76 -207 5 -5 171 153 370 351 288 287 360 364 356
380 -3 11 -8 20 -12 20 -3 0 -17 18 -31 40 -14 22 -28 40 -32 40 -5 0 -8 5 -8
11 0 6 -13 28 -30 49 -16 21 -30 41 -30 45 0 3 -13 26 -30 50 -16 24 -30 48
-30 54 0 6 -4 11 -8 11 -4 0 -20 24 -35 53 -60 112 -112 201 -122 203 -5 1
-144 -132 -309 -295z"/>
</g>
</svg>
